# xmcd CD database file
# Copyright (C) 1997 Ti Kan
# 
# Track frame offsets:
#     150
#     20700
#     36333
#     58224
#     76557
#     98415
#     121398
#     144957
#     159510
#     173769
# 
# Disc length: 2709 seconds
# 
# Revision: 1
# Processed by: cddbd v1.4b41PL1 Copyright (c) Steve Scherf et al.
# Submitted via: DiscPlay 4.0.3
# 
DISCID=750a930a
DTITLE=Eddy Clearwater - Mean Case Of The Blues
DYEAR=1900
DGENRE=
TTITLE0=Mean Case Of The Blues
TTITLE1=Send For Me
TTITLE2=Check Up On My Baby
TTITLE3=Love Being Loved By You
TTITLE4=Make It If You Try
TTITLE5=Hard Way To Make An Easy Living
TTITLE6=Look Whatcha Done
TTITLE7=Come On Down
TTITLE8=Party At My House
TTITLE9=Don't Take My Blues
EXTD=
EXTT0=
EXTT1=
EXTT2=
EXTT3=
EXTT4=
EXTT5=
EXTT6=
EXTT7=
EXTT8=
EXTT9=
PLAYORDER=
